<svg width="17" height="16" viewBox="0 0 17 16" fill="none" xmlns="http://www.w3.org/2000/svg">
<path fill-rule="evenodd" clip-rule="evenodd" d="M17 7.7954C17 11.6408 13.1869 14.7693 8.5 14.7693C7.29215 14.7693 6.12595 14.5652 5.03115 14.1625C3.10278 15.1771 0.437466 15.5268 0.322716 15.5415C0.309399 15.5434 0.296366 15.5441 0.283333 15.5441C0.177083 15.5441 0.0779175 15.4896 0.0297508 15.401C-0.0246492 15.3016 -0.00311598 15.1815 0.0830173 15.1032C0.734684 14.5092 1.18348 13.2559 1.35093 11.5675C0.466366 10.4416 0 9.13954 0 7.7954C0 3.94996 3.8131 0.821533 8.5 0.821533C13.1869 0.821533 17 3.94996 17 7.7954V7.7954ZM5.66667 7.7954C5.66667 7.2256 5.15837 6.76223 4.53333 6.76223C3.9083 6.76223 3.4 7.2256 3.4 7.7954C3.4 8.36519 3.9083 8.82856 4.53333 8.82856C5.15837 8.82856 5.66667 8.36519 5.66667 7.7954V7.7954ZM9.63333 7.7954C9.63333 7.2256 9.12503 6.76223 8.5 6.76223C7.87497 6.76223 7.36667 7.2256 7.36667 7.7954C7.36667 8.36519 7.87497 8.82856 8.5 8.82856C9.12503 8.82856 9.63333 8.36519 9.63333 7.7954V7.7954ZM13.6 7.7954C13.6 7.2256 13.0917 6.76223 12.4667 6.76223C11.8416 6.76223 11.3333 7.2256 11.3333 7.7954C11.3333 8.36519 11.8416 8.82856 12.4667 8.82856C13.0917 8.82856 13.6 8.36519 13.6 7.7954V7.7954Z" fill="#D3D3D3"/>
</svg>
