<svg width="16" height="16" viewBox="0 0 16 16" fill="none" xmlns="http://www.w3.org/2000/svg">
<path fill-rule="evenodd" clip-rule="evenodd" d="M8 0.0380859C3.58882 0.0380859 0 3.39832 0 7.52853C0 11.6584 3.58882 15.019 8 15.019C12.4109 15.019 16 11.6584 16 7.52853C16 3.39832 12.4115 0.0380859 8 0.0380859V0.0380859ZM9.98953 7.79223H8.68799C8.68799 9.73922 8.68799 12.1358 8.68799 12.1358H6.75937C6.75937 12.1358 6.75937 9.76245 6.75937 7.79223H5.84258V6.25709H6.75937V5.26414C6.75937 4.55299 7.12028 3.44176 8.70571 3.44176L10.1349 3.44689V4.93708C10.1349 4.93708 9.26641 4.93708 9.09756 4.93708C8.9287 4.93708 8.68863 5.01613 8.68863 5.35526V6.25739H10.1581L9.98953 7.79223V7.79223Z" fill="#D3D3D3"/>
</svg>
