<svg width="16" height="16" viewBox="0 0 16 16" fill="none" xmlns="http://www.w3.org/2000/svg">
<g clip-path="url(#clip0)">
<path fill-rule="evenodd" clip-rule="evenodd" d="M7.94376 9.24578C8.82024 9.24578 9.5348 8.57793 9.5348 7.75668C9.5348 7.43249 9.42152 7.13317 9.234 6.88869C8.94504 6.51356 8.47528 6.26758 7.94472 6.26758C7.41384 6.26758 6.9444 6.51326 6.6548 6.88839C6.46664 7.13287 6.35432 7.43219 6.354 7.75638C6.35304 8.57763 7.06696 9.24578 7.94376 9.24578V9.24578Z" fill="#D3D3D3"/>
<path fill-rule="evenodd" clip-rule="evenodd" d="M11.4171 5.93495V4.68674V4.50098L11.2177 4.50158L9.88525 4.50547L9.89037 5.93974L11.4171 5.93495Z" fill="#D3D3D3"/>
<path fill-rule="evenodd" clip-rule="evenodd" d="M7.94432 0.318359C3.56384 0.318359 0 3.6552 0 7.75667C0 11.8578 3.56384 15.195 7.94432 15.195C12.3245 15.195 15.8886 11.8578 15.8886 7.75667C15.8886 3.6552 12.3251 0.318359 7.94432 0.318359V0.318359ZM12.4624 6.88867V10.3523C12.4624 11.2544 11.679 11.9876 10.7162 11.9876H5.17248C4.20928 11.9876 3.42624 11.2544 3.42624 10.3523V6.88867V5.16168C3.42624 4.25983 4.20928 3.52666 5.17248 3.52666H10.7158C11.679 3.52666 12.4624 4.25983 12.4624 5.16168V6.88867V6.88867Z" fill="#D3D3D3"/>
<path fill-rule="evenodd" clip-rule="evenodd" d="M10.4156 7.75666C10.4156 9.03214 9.30711 10.0706 7.94423 10.0706C6.58135 10.0706 5.47319 9.03214 5.47319 7.75666C5.47319 7.44986 5.53847 7.15653 5.65495 6.88867H4.30615V10.3523C4.30615 10.7999 4.69431 11.1624 5.17207 11.1624H10.7154C11.1926 11.1624 11.5814 10.7999 11.5814 10.3523V6.88867H10.2319C10.3494 7.15653 10.4156 7.44986 10.4156 7.75666V7.75666Z" fill="#D3D3D3"/>
</g>
<defs>
<clipPath id="clip0">
<rect width="16" height="14.9809" fill="white" transform="translate(0 0.318359)"/>
</clipPath>
</defs>
</svg>
