<svg width="94" height="72" viewBox="0 0 94 72" fill="none" xmlns="http://www.w3.org/2000/svg">
<g clip-path="url(#clip0)">
<path fill-rule="evenodd" clip-rule="evenodd" d="M93.5271 25.1102C93.05 24.2279 92.2594 23.5845 91.3007 23.2992L13.6323 0.177142C13.2857 0.0740558 12.9275 0.0214844 12.5681 0.0214844C10.923 0.0214844 9.44763 1.12846 8.97991 2.71314L0.154605 32.6098C-0.403478 34.5006 0.596154 36.4869 2.399 37.1835V68.2014C2.399 70.2741 4.07825 71.9607 6.14238 71.9607H87.1517C89.2159 71.9607 90.8951 70.2741 90.8951 68.2014V37.9015L93.8259 27.9723C94.1107 27.0091 94.0044 25.9927 93.5271 25.1102ZM88.1641 68.2014C88.1641 68.7618 87.71 69.2178 87.1519 69.2178H66.3026V67.5817C66.3026 66.8245 65.6913 66.2103 64.937 66.2103C64.1827 66.2103 63.5714 66.8245 63.5714 67.5817V69.2178H6.14238C5.5843 69.2178 5.13023 68.7618 5.13023 68.2014V38.0123L17.7567 41.7712L16.8729 42.6587L10.6983 41.9794L9.41964 43.0192L14.3331 45.2091L12.6165 46.9333L10.7857 46.7534C10.7545 46.7504 10.7243 46.7623 10.7024 46.7851L10.0615 47.4288C10.0201 47.4674 10.0169 47.5328 10.0553 47.5753C10.0649 47.5858 10.0765 47.5941 10.0892 47.5995L11.6825 48.3278C11.6877 48.5895 11.7892 48.8494 11.9877 49.0489C12.1866 49.2482 12.4454 49.3504 12.7058 49.3557L13.4327 50.9536C13.4562 51.0059 13.5172 51.029 13.5688 51.0059C13.58 51.0007 13.5905 50.9941 13.5991 50.9854L14.24 50.3376C14.2626 50.3159 14.274 50.2855 14.2717 50.2542L14.0923 48.4194L15.8105 46.6937L17.9914 51.6283L19.0268 50.344L18.3505 44.1431L20.0359 42.4503L22.8732 43.2949V44.0446C22.8732 44.2971 23.0772 44.5017 23.3284 44.5017H26.9271L37.2773 47.5829H23.3284C23.0772 47.5829 22.8732 47.7877 22.8732 48.04V50.9509C22.8732 51.2034 23.0772 51.408 23.3284 51.408H50.1266L63.6139 55.4231C63.5871 55.5303 63.5711 55.6421 63.5711 55.7577V61.6697C63.5711 62.427 64.1825 63.0411 64.9368 63.0411C65.691 63.0411 66.3024 62.427 66.3024 61.6697V56.2233L80.3484 60.4048C80.6951 60.5081 81.0536 60.5605 81.4129 60.5605C83.0578 60.5605 84.5331 59.4537 85.0013 57.8693L88.1641 47.1545V68.2014ZM91.2076 27.1925L82.383 57.0894C82.2562 57.5182 81.8575 57.8176 81.4132 57.8176C81.3164 57.8176 81.2195 57.8032 81.1248 57.7751L61.1353 51.8242L61.5983 50.2558C61.8125 49.5296 61.4003 48.7664 60.6769 48.5511C59.9543 48.3362 59.1939 48.7497 58.9795 49.4761L58.5165 51.0448L3.45621 34.6533C2.92112 34.4939 2.61454 33.9271 2.7734 33.3897L11.5983 3.4928C11.7248 3.064 12.1236 2.76434 12.5678 2.76434C12.6646 2.76434 12.7618 2.77874 12.8562 2.80686L67.9165 19.1986L67.3448 21.1353C67.1306 21.8617 67.5428 22.6249 68.2661 22.84C68.3956 22.8786 68.5263 22.8969 68.6549 22.8969C69.2439 22.8969 69.7877 22.5111 69.9636 21.915L70.5353 19.9783L90.5246 25.9291C90.784 26.0062 90.998 26.1803 91.1268 26.419C91.2559 26.6571 91.2845 26.9321 91.2076 27.1925Z" fill="#8C001A"/>
<path fill-rule="evenodd" clip-rule="evenodd" d="M64.0231 37.2149C63.3021 36.9993 62.5401 37.4133 62.3257 38.1399L60.6528 43.808C60.4386 44.5342 60.851 45.2976 61.5741 45.5127C61.7034 45.5513 61.8343 45.5696 61.9629 45.5696C62.5519 45.5696 63.0956 45.1838 63.2716 44.5874L64.9447 38.9193C65.1586 38.1931 64.746 37.4299 64.0231 37.2149Z" fill="#8C001A"/>
<path fill-rule="evenodd" clip-rule="evenodd" d="M67.3695 25.8784C66.6483 25.6633 65.8865 26.077 65.6721 26.8037L63.999 32.4718C63.7848 33.1979 64.1972 33.9611 64.9203 34.1762C65.0496 34.2149 65.1802 34.2331 65.3091 34.2331C65.8981 34.2331 66.4418 33.8473 66.6178 33.2512L68.2909 27.5831C68.5051 26.8569 68.0926 26.0937 67.3695 25.8784Z" fill="#8C001A"/>
<path fill-rule="evenodd" clip-rule="evenodd" d="M13.3581 15.053L14.6796 16.2057C14.6104 16.4581 14.6343 16.736 14.7683 16.984C14.9024 17.232 15.1216 17.4041 15.3699 17.4832L15.6148 19.2224C15.6225 19.2793 15.6742 19.3193 15.7304 19.3115C15.7425 19.3097 15.7543 19.3063 15.7652 19.3006L16.563 18.8624C16.5907 18.848 16.6103 18.8222 16.6169 18.7913L16.9642 16.9808L19.1001 15.8171L19.7945 21.1705L21.1505 20.2345L22.2571 14.0962L24.6028 12.8178C25.1099 12.5417 25.2979 11.9045 25.0227 11.3952C24.7476 10.8859 24.113 10.6969 23.6059 10.9733L21.2602 12.2519L15.5324 9.83817L14.0122 10.4702L18.1034 13.9723L15.9698 15.1355L14.2653 14.4402C14.2362 14.4286 14.2039 14.4313 14.1766 14.4469L13.38 14.8807C13.3292 14.9061 13.3078 14.9678 13.3326 15.0194C13.3385 15.0325 13.3474 15.0439 13.3581 15.053Z" fill="#8C001A"/>
<path fill-rule="evenodd" clip-rule="evenodd" d="M55.8228 42.0841L8.74202 28.0679C8.50189 27.9968 8.24766 28.1342 8.17619 28.3765L7.35227 31.1673C7.3179 31.2834 7.3311 31.4087 7.38869 31.5154C7.44627 31.622 7.54369 31.7013 7.65954 31.7356L54.7406 45.7516C54.7829 45.7644 54.8266 45.7705 54.8698 45.7705C54.945 45.7705 55.0196 45.7518 55.087 45.7152C55.193 45.6574 55.272 45.5595 55.3064 45.4434L56.1301 42.6526C56.2013 42.4101 56.0638 42.1559 55.8228 42.0841Z" fill="#8C001A"/>
<path fill-rule="evenodd" clip-rule="evenodd" d="M57.7775 35.4624L10.6965 21.4462C10.5809 21.4119 10.4562 21.4249 10.3501 21.4828C10.244 21.5406 10.165 21.6384 10.1309 21.7545L9.30698 24.5458C9.23552 24.7879 9.37299 25.0423 9.61402 25.1138L56.695 39.1296C56.7376 39.1424 56.7811 39.1486 56.8243 39.1486C56.8994 39.1486 56.9741 39.1298 57.0415 39.0933C57.1475 39.0354 57.2265 38.9376 57.2609 38.8215L58.0846 36.0306C58.156 35.7886 58.0186 35.5342 57.7775 35.4624Z" fill="#8C001A"/>
<path fill-rule="evenodd" clip-rule="evenodd" d="M59.7319 28.8407L26.0565 18.8155C25.8157 18.744 25.5621 18.8816 25.4906 19.1241L24.6667 21.915C24.6324 22.0311 24.6456 22.1563 24.7031 22.2629C24.7607 22.3694 24.8581 22.4487 24.974 22.483L58.6501 32.5083C58.6927 32.5211 58.7361 32.5273 58.7794 32.5273C58.8545 32.5273 58.9292 32.5086 58.9965 32.472C59.1026 32.4142 59.1816 32.3161 59.2159 32.2L60.0392 29.4089C60.1104 29.1669 59.9729 28.9127 59.7319 28.8407Z" fill="#8C001A"/>
<path fill-rule="evenodd" clip-rule="evenodd" d="M60.7338 25.9054C60.93 25.9054 61.1113 25.7767 61.1698 25.5781L61.994 22.7872C62.0284 22.6709 62.0154 22.5456 61.9578 22.4391C61.9002 22.3326 61.8028 22.2533 61.6872 22.2188L28.0111 12.1936C27.7705 12.1221 27.5169 12.2599 27.4452 12.5022L26.6213 15.293C26.5869 15.4092 26.6001 15.5344 26.6577 15.6409C26.7153 15.7474 26.8127 15.8268 26.9284 15.861L60.6042 25.8862C60.6475 25.8994 60.691 25.9054 60.7338 25.9054Z" fill="#8C001A"/>
<path fill-rule="evenodd" clip-rule="evenodd" d="M58.4531 61.3957H9.3473C9.09579 61.3957 8.89209 61.6005 8.89209 61.8528V64.7637C8.89209 65.0162 9.09579 65.2208 9.3473 65.2208H58.4531C58.7044 65.2208 58.9083 65.0162 58.9083 64.7637V61.8528C58.9083 61.6002 58.7044 61.3957 58.4531 61.3957Z" fill="#8C001A"/>
<path fill-rule="evenodd" clip-rule="evenodd" d="M58.4531 54.4892L9.3473 54.4889C9.22667 54.4889 9.11082 54.5372 9.02547 54.6229C8.94011 54.7086 8.89209 54.8249 8.89209 54.9461V57.8572C8.89209 58.1095 9.09579 58.3143 9.3473 58.3143H58.4531C58.7044 58.3143 58.9083 58.1095 58.9083 57.8572V54.9463C58.9083 54.694 58.7044 54.4892 58.4531 54.4892Z" fill="#8C001A"/>
</g>
<defs>
<clipPath id="clip0">
<rect width="94" height="72" fill="white"/>
</clipPath>
</defs>
</svg>
