<svg width="80" height="76" viewBox="0 0 80 76" fill="none" xmlns="http://www.w3.org/2000/svg">
<path fill-rule="evenodd" clip-rule="evenodd" d="M74.4828 0.0376892H68.9656H66.0691H57.9311H55.1725H46.8966H44.138H35.862H33.1034H24.8275H22.0689H13.7931H11.0345H5.37937C2.34484 0.0376892 0 2.38446 0 5.42149V16.603C0 18.5357 0.827656 20.4682 2.20688 21.7107C2.80594 22.1904 3.45734 22.5917 4.13797 22.8924V30.4075V74.5818C4.13797 75.4101 4.68969 75.9623 5.51734 75.9623H12.4139H31.7242H74.4828C75.3105 75.9623 75.8622 75.4101 75.8622 74.5818V30.4078V30.4077V22.896C78.2812 21.7327 80 19.1595 80 16.327V5.42149C80 2.38446 77.6552 0.0376892 74.4828 0.0376892ZM57.9311 2.79871H66.0691V16.6032C66.0691 16.8804 66.0911 17.1574 66.1292 17.4326C65.7622 19.3598 64.1288 20.7446 62.0691 20.7446C59.7242 20.7446 57.9311 18.95 57.9311 16.6032V2.79871ZM46.8966 2.79871H55.1725V16.6032C55.1725 18.95 53.3794 20.7446 51.0345 20.7446C48.6897 20.7446 46.8966 18.95 46.8966 16.6032V2.79871ZM35.862 2.79871H44.138V16.6032C44.138 18.95 42.3448 20.7446 40 20.7446C37.6552 20.7446 35.862 18.95 35.862 16.6032V2.79871ZM24.8277 2.79871H33.1036V16.6032C33.1036 18.95 31.3105 20.7446 28.9656 20.7446C26.6208 20.7446 24.8277 18.95 24.8277 16.6032V2.79871ZM13.7931 2.79871H22.0691V16.6032C22.0691 18.95 20.2759 20.7446 17.9311 20.7446C15.5863 20.7446 13.7931 18.95 13.7931 16.6032V16.327V2.79871ZM2.75859 16.603V5.42149C2.75859 3.90306 3.86203 2.79871 5.37922 2.79871H11.0344V16.327C11.0344 18.3915 9.58813 20.2144 7.70969 20.6692C7.50531 20.7073 7.295 20.7314 7.07953 20.74C6.03703 20.7033 4.90828 20.411 4.13781 19.6401C3.31031 18.9498 2.75859 17.7074 2.75859 16.603ZM7.58625 23.5053C8.13219 23.4397 8.66078 23.3045 9.16391 23.1098C10.4589 22.6521 11.5972 21.8236 12.3969 20.7657C13.645 22.4388 15.6427 23.5053 17.9311 23.5053C20.2094 23.5053 22.1991 22.4478 23.4483 20.7874C24.6975 22.4478 26.6872 23.5053 28.9655 23.5053C31.2438 23.5053 33.2334 22.4478 34.4827 20.7874C35.7319 22.4478 37.7216 23.5053 39.9998 23.5053C42.2781 23.5053 44.2678 22.4478 45.517 20.7874C46.7663 22.4478 48.7559 23.5053 51.0342 23.5053C53.3125 23.5053 55.3022 22.4478 56.5514 20.7874C57.8006 22.4478 59.7903 23.5053 62.0686 23.5053C64.3403 23.5053 66.3248 22.4538 67.5747 20.8016C67.8311 21.1324 68.1116 21.4389 68.4133 21.7107C68.6342 21.8877 68.8631 22.0527 69.097 22.2072C70.0731 22.9002 71.2397 23.3548 72.4728 23.4721C72.483 23.4732 72.4931 23.474 72.5033 23.4749C72.5877 23.4826 72.6719 23.4899 72.7569 23.4945C72.8722 23.501 72.9875 23.5053 73.1028 23.5053V29.027H6.89656V23.5053C7.17234 23.5053 7.31031 23.5053 7.58625 23.5053ZM13.7931 73.2013V37.3097H30.3448V56.636H27.5863C26.7586 56.636 26.2069 57.1881 26.2069 58.0165C26.2069 58.8448 26.7586 59.397 27.5863 59.397H30.3448V73.2014H13.7931V73.2013ZM73.1034 73.2013H33.1034V35.9294C33.1034 35.1011 32.5517 34.5489 31.7241 34.5489H12.4137C11.5861 34.5489 11.0344 35.1011 11.0344 35.9294V73.2015H6.89656V31.788H73.1034V73.2013ZM77.2414 16.327C77.2414 18.3667 75.9909 19.9885 74.3053 20.5596C74.2266 20.5668 74.1478 20.5802 74.0689 20.6065C73.8658 20.7081 73.5881 20.7347 73.3456 20.7417C72.2869 20.7141 71.1298 20.4257 70.3448 19.6401C69.5172 18.9498 68.9655 17.7074 68.9655 16.603V2.79871H74.6206C76.1378 2.79871 77.2412 4.04114 77.2412 5.42149V16.327H77.2414Z" fill="#8C001A"/>
<path fill-rule="evenodd" clip-rule="evenodd" d="M38.6207 67.6796H45.5173H62.069H68.9656C69.7932 67.6796 70.345 67.1274 70.345 66.2991V35.9294C70.345 35.1011 69.7932 34.5489 68.9656 34.5489H60.6896H46.8965H38.6206C37.7929 34.5489 37.2412 35.1011 37.2412 35.9294V66.2992C37.2415 67.1274 37.7932 67.6796 38.6207 67.6796ZM57.9312 60.7773C58.7589 60.7773 59.3106 60.2252 59.3106 59.3968C59.3106 58.5685 58.7589 58.0163 57.9312 58.0163H49.6553C48.8276 58.0163 48.2759 58.5685 48.2759 59.3968C48.2759 60.2252 48.8276 60.7773 49.6553 60.7773H52.4139V64.9187H46.8576C46.5856 60.0025 44.8704 55.8972 42.3448 53.8751C45.5993 51.1391 47.9926 44.959 48.2515 37.3098H59.3334C59.5787 44.959 61.8567 51.1391 65.2414 53.8751C62.7159 55.8972 61.0006 60.0025 60.7286 64.9187H55.1723V60.7773H57.9312ZM67.5864 64.9187H63.4484C63.8621 60.2252 65.6553 56.774 67.5864 55.6697V64.9187ZM67.5864 37.3098V52.0805C64.8278 50.5621 62.345 45.0402 62.0692 37.3098H67.5864ZM40.0001 37.3098H45.5173C45.2414 45.0403 42.6207 50.5621 40.0001 52.0805V37.3098ZM40.0001 55.6697C42.069 56.774 43.8621 60.2252 44.1381 64.9187H40.0001V55.6697Z" fill="#8C001A"/>
<path fill-rule="evenodd" clip-rule="evenodd" d="M27.5862 49.7337V41.451C27.5862 40.6226 27.0345 40.0705 26.2068 40.0705H17.9309C17.1032 40.0705 16.5515 40.6226 16.5515 41.451V49.7337C16.5515 50.5621 17.1032 51.1142 17.9309 51.1142H26.2068C27.0345 51.1142 27.5862 50.5621 27.5862 49.7337ZM24.8276 48.3534H19.3104V42.8316H24.8276V48.3534Z" fill="#8C001A"/>
</svg>
