<svg width="94" height="80" viewBox="0 0 94 80" fill="none" xmlns="http://www.w3.org/2000/svg">
<path fill-rule="evenodd" clip-rule="evenodd" d="M86.7626 26.3904C82.2394 21.8755 75.9121 18.6604 68.9459 17.3369C68.1053 17.1778 67.2946 17.7334 67.1358 18.5791C66.9769 19.4248 67.5297 20.24 68.3708 20.3998C81.6364 22.9199 90.9012 32.1928 90.9012 42.9498C90.9012 51.8092 84.6307 59.7718 74.537 63.7303C74.0217 63.9325 73.6525 64.3954 73.5685 64.9452C72.9561 68.9452 73.792 73.0161 75.8346 76.4073C71.3746 75.2091 67.7622 71.7666 66.3571 67.1019C66.1447 66.3967 65.4683 65.9362 64.7401 66.0012C63.6458 66.0968 62.5428 66.1454 61.4617 66.1454C51.8222 66.1454 42.7741 62.4052 37.2578 56.14C36.6907 55.4957 35.7115 55.4358 35.0706 56.0064C34.43 56.577 34.3705 57.562 34.9378 58.2063C41.0331 65.1291 50.9488 69.2623 61.4617 69.2623C62.2339 69.2623 63.0161 69.2395 63.7989 69.1942C64.9221 72.108 66.8544 74.7023 69.3298 76.5924C72.2376 78.8127 75.7034 79.9861 79.352 79.9861C79.9774 79.9861 80.5414 79.6079 80.7821 79.0273C81.0228 78.4467 80.8928 77.7776 80.4528 77.3307C77.5956 74.4297 76.1608 70.3541 76.5265 66.2826C81.5302 64.1698 85.7728 61.0394 88.8382 57.1896C92.2152 52.9488 94.0001 48.0249 94.0001 42.9498C94.0001 36.9303 91.4299 31.0493 86.7626 26.3904Z" fill="#8C001A"/>
<path fill-rule="evenodd" clip-rule="evenodd" d="M65.0769 26.3264C65.0769 19.2293 61.6454 12.5797 55.4143 7.60249C49.2882 2.70899 41.1639 0.0141296 32.5385 0.0141296C23.9124 0.0141296 15.7879 2.70899 9.66217 7.60249C3.43131 12.5797 0 19.2293 0 26.3264C0 31.4016 1.78497 36.3256 5.16174 40.5662C8.22717 44.4158 12.47 47.5464 17.4735 49.6592C17.8391 53.7307 16.4043 57.8063 13.5472 60.7073C13.1071 61.1541 12.9772 61.8234 13.2178 62.4039C13.4585 62.9845 14.0227 63.3627 14.6479 63.3627C18.2967 63.3627 21.7623 62.1893 24.6701 59.969C27.1455 58.0792 29.0778 55.4847 30.2011 52.5708C30.9838 52.6161 31.766 52.639 32.5383 52.639C41.1639 52.639 49.2882 49.9441 55.4141 45.0506C61.6454 40.0731 65.0769 33.4236 65.0769 26.3264ZM29.26 49.3777C28.5295 49.3135 27.8554 49.7729 27.643 50.4783C26.238 55.1429 22.6257 58.5854 18.1656 59.7835C20.2081 56.3925 21.044 52.3215 20.4317 48.3215C20.3476 47.7716 19.9784 47.3087 19.4632 47.1065C9.36942 43.1485 3.0989 35.1859 3.0989 26.3264C3.0989 13.5364 16.3054 3.13101 32.5385 3.13101C48.7715 3.13101 61.978 13.5364 61.978 26.3264C61.978 39.1165 48.7715 49.5219 32.5385 49.5219C31.4574 49.5219 30.3544 49.4735 29.26 49.3777Z" fill="#8C001A"/>
</svg>
