<svg width="16" height="16" viewBox="0 0 16 16" fill="none" xmlns="http://www.w3.org/2000/svg">
<g clip-path="url(#clip0)">
<path fill-rule="evenodd" clip-rule="evenodd" d="M6.52539 9.70737C7.72278 9.12602 8.90972 8.55002 10.1076 7.96837C8.90613 7.38136 7.71951 6.802 6.52539 6.21851C6.52539 7.38549 6.52539 8.54054 6.52539 9.70737V9.70737Z" fill="#D3D3D3"/>
<path fill-rule="evenodd" clip-rule="evenodd" d="M7.97959 0.598633C3.57273 0.598633 0 3.94365 0 8.06997C0 12.1963 3.57273 15.5413 7.97959 15.5413C12.3864 15.5413 15.9592 12.1963 15.9592 8.06997C15.9592 3.94365 12.3864 0.598633 7.97959 0.598633V0.598633ZM13.4165 10.5638C13.2784 11.1249 12.7882 11.5387 12.1984 11.6003C10.8013 11.7466 9.38743 11.7473 7.97927 11.7466C6.5711 11.7473 5.1569 11.7466 3.75951 11.6003C3.16963 11.5387 2.67984 11.1249 2.54204 10.5638C2.34563 9.76465 2.34563 8.89255 2.34563 8.06997C2.34563 7.2474 2.34792 6.37499 2.54433 5.57611C2.68212 5.01509 3.17192 4.60113 3.7618 4.53937C5.15918 4.39323 6.57339 4.39247 7.98155 4.39323C9.38939 4.39247 10.8036 4.39323 12.2005 4.53937C12.7907 4.60113 13.2808 5.01494 13.4186 5.57611C13.615 6.37514 13.6134 7.2474 13.6134 8.06997C13.6134 8.89255 13.6129 9.7648 13.4165 10.5638V10.5638Z" fill="#D3D3D3"/>
</g>
<defs>
<clipPath id="clip0">
<rect width="16" height="14.9809" fill="white" transform="translate(0 0.598633)"/>
</clipPath>
</defs>
</svg>
